<svg height="96" width="96" xmlns="http://www.w3.org/2000/svg" xmlns:xlink="http://www.w3.org/1999/xlink"><linearGradient id="a"><stop offset="0" stop-color="#fff"/><stop offset="1" stop-color="#fff" stop-opacity="0"/></linearGradient><linearGradient id="b" gradientUnits="userSpaceOnUse" x1="36.357143" x2="36.357143" xlink:href="#a" y1="6" y2="63.893143"/><filter id="c" color-interpolation-filters="sRGB" height="1.384" width="1.384" x="-.192" y="-.192"><feGaussianBlur stdDeviation="5.28"/></filter><linearGradient id="d" gradientUnits="userSpaceOnUse" x1="48" x2="48" xlink:href="#a" y1="20.220806" y2="138.66119"/><radialGradient id="e" cx="48" cy="90.171875" gradientTransform="matrix(1.1573129 0 0 .99590774 -7.551021 .197132)" gradientUnits="userSpaceOnUse" r="42" xlink:href="#a"/><clipPath id="f"><rect height="84" rx="6" width="84" x="6" y="6"/></clipPath><linearGradient id="g" gradientUnits="userSpaceOnUse" x1="48" x2="48" y1="90" y2="5.987717"><stop offset="0" stop-color="#4b61ac"/><stop offset="1" stop-color="#93a0d0"/></linearGradient><linearGradient id="h" gradientTransform="matrix(1.0058652 0 0 .994169 100 0)" gradientUnits="userSpaceOnUse" x1="45.447727" x2="45.447727" y1="92.539597" y2="7.01654"><stop offset="0"/><stop offset="1" stop-opacity=".588235"/></linearGradient><linearGradient id="i" gradientTransform="matrix(1.0238095 0 0 1.0119048 -1.142857 -98.071429)" gradientUnits="userSpaceOnUse" x1="32.251034" x2="32.251034" xlink:href="#h" y1="6.131708" y2="90.238609"/><linearGradient id="j" gradientTransform="translate(0 -97)" gradientUnits="userSpaceOnUse" x1="32.251034" x2="32.251034" xlink:href="#h" y1="6.131708" y2="90.238609"/><linearGradient id="k" gradientTransform="matrix(.44930767 0 0 .44741484 -116.00993 -161.73218)" gradientUnits="userSpaceOnUse" x1="365.51193" x2="365.97757" y1="408.39655" y2="520.1709"><stop offset="0" stop-color="#384880"/><stop offset="1"/></linearGradient><g fill="url(#i)"><path d="m12-95.03125c-5.5110903 0-10.03125 4.52016-10.03125 10.03125v71c0 5.5110902 4.5201598 10.03125 10.03125 10.03125h72c5.51109 0 10.03125-4.5201597 10.03125-10.03125v-71c0-5.51109-4.52016-10.03125-10.03125-10.03125z" opacity=".08" transform="scale(1 -1)"/><path d="m12-94.03125c-4.971633 0-9.03125 4.059617-9.03125 9.03125v71c0 4.9716329 4.0596171 9.03125 9.03125 9.03125h72c4.971633 0 9.03125-4.059617 9.03125-9.03125v-71c0-4.971633-4.059617-9.03125-9.03125-9.03125z" opacity=".1" transform="scale(1 -1)"/><path d="m12-93c-4.4091333 0-8 3.590867-8 8v71c0 4.4091333 3.5908667 8 8 8h72c4.409133 0 8-3.5908667 8-8v-71c0-4.409133-3.590867-8-8-8z" opacity=".2" transform="scale(1 -1)"/><rect height="85" opacity=".3" rx="7" transform="scale(1 -1)" width="86" x="5" y="-92"/></g><rect fill="url(#j)" height="84" opacity=".45" rx="6" transform="scale(1 -1)" width="84" x="6" y="-91"/><rect fill="url(#g)" height="84" rx="6" width="84" x="6" y="6"/><path d="m12 6c-3.324 0-6 2.676-6 6v2 68 2c0 .334721.04135.6507.09375.96875.0487.295596.09704.596915.1875.875.00988.03038.020892.0636.03125.09375.098865.287771.2348802.547452.375.8125.1445918.273507.3156161.535615.5.78125s.3737765.473472.59375.6875c.439947.428056.94291.814526 1.5 1.09375.278545.139612.5734731.246947.875.34375-.2562018-.100222-.4867109-.236272-.71875-.375-.00741-.0044-.023866.0045-.03125 0-.031933-.0193-.062293-.04251-.09375-.0625-.120395-.0767-.2310226-.163513-.34375-.25-.1061728-.0808-.2132809-.161112-.3125-.25-.1779299-.161433-.3474596-.345388-.5-.53125-.1075789-.130255-.2183939-.265285-.3125-.40625-.025089-.03838-.038446-.08587-.0625-.125-.064763-.103032-.1302275-.204517-.1875-.3125-.1010083-.194706-.2056748-.415701-.28125-.625-.00796-.02181-.023589-.04055-.03125-.0625-.0318251-.09195-.0358045-.186831-.0625-.28125-.0303323-.106618-.0703894-.203031-.09375-.3125-.0728786-.341512-.125-.698205-.125-1.0625v-2-68-2c0-2.781848 2.2181517-5 5-5h2 68 2c2.781848 0 5 2.218152 5 5v2 68 2c0 .364295-.05212.720988-.125 1.0625-.04415.206893-.08838.397658-.15625.59375-.0077.02195-.0233.04069-.03125.0625-.06274.173739-.138383.367449-.21875.53125-.04158.0828-.07904.169954-.125.25-.0546.09721-.126774.18835-.1875.28125-.09411.140965-.204921.275995-.3125.40625-.143174.17445-.303141.346998-.46875.5-.01117.0102-.01998.02115-.03125.03125-.138386.125556-.285091.234436-.4375.34375-.102571.07315-.204318.153364-.3125.21875-.0074.0045-.02384-.0044-.03125 0-.232039.138728-.462548.274778-.71875.375.301527-.0968.596455-.204138.875-.34375.55709-.279224 1.060053-.665694 1.5-1.09375.219973-.214028.409366-.441865.59375-.6875s.355408-.507743.5-.78125c.14012-.265048.276135-.524729.375-.8125.01041-.03078.02133-.06274.03125-.09375.09046-.278085.1388-.579404.1875-.875.0524-.31805.09375-.634029.09375-.96875v-2-68-2c0-3.324-2.676-6-6-6z" fill="url(#b)" opacity=".35"/><path d="m12 90c-3.324 0-6-2.676-6-6v-2-68-2c0-.334721.04135-.6507.09375-.96875.0487-.295596.09704-.596915.1875-.875.00988-.03038.020892-.0636.03125-.09375.098865-.287771.2348802-.547452.375-.8125.1445918-.273507.3156161-.535615.5-.78125s.3737765-.473472.59375-.6875c.439947-.428056.94291-.814526 1.5-1.09375.278545-.139612.5734731-.246947.875-.34375-.2562018.100222-.4867109.236272-.71875.375-.00741.0044-.023866-.0045-.03125 0-.031933.0193-.062293.04251-.09375.0625-.120395.0767-.2310226.163513-.34375.25-.1061728.0808-.2132809.161112-.3125.25-.1779299.161433-.3474596.345388-.5.53125-.1075789.130255-.2183939.265285-.3125.40625-.025089.03838-.038446.08587-.0625.125-.064763.103032-.1302275.204517-.1875.3125-.1010083.194706-.2056748.415701-.28125.625-.00796.02181-.023589.04055-.03125.0625-.0318251.09195-.0358045.186831-.0625.28125-.0303323.106618-.0703894.203031-.09375.3125-.0728786.341512-.125.698205-.125 1.0625v2 68 2c0 2.781848 2.2181517 5 5 5h2 68 2c2.781848 0 5-2.218152 5-5v-2-68-2c0-.364295-.05212-.720988-.125-1.0625-.04415-.206893-.08838-.397658-.15625-.59375-.0077-.02195-.0233-.04069-.03125-.0625-.06274-.173739-.138383-.367449-.21875-.53125-.04158-.0828-.07904-.169954-.125-.25-.0546-.09721-.126774-.18835-.1875-.28125-.09411-.140965-.204921-.275995-.3125-.40625-.143174-.17445-.303141-.346998-.46875-.5-.01117-.0102-.01998-.02115-.03125-.03125-.138386-.125556-.285091-.234436-.4375-.34375-.102571-.07315-.204318-.153364-.3125-.21875-.0074-.0045-.02384.0044-.03125 0-.232039-.138728-.462548-.274778-.71875-.375.301527.0968.596455.204138.875.34375.55709.279224 1.060053.665694 1.5 1.09375.219973.214028.409366.441865.59375.6875s.355408.507743.5.78125c.14012.265048.276135.524729.375.8125.01041.03078.02133.06274.03125.09375.09046.278085.1388.579404.1875.875.0524.31805.09375.634029.09375.96875v2 68 2c0 3.324-2.676 6-6 6z" fill="url(#e)" opacity=".2"/><rect height="66" rx="12" style="opacity:.1;stroke:#fff;stroke-width:.5;stroke-linecap:round;clip-path:url(#f);fill:url(#d);filter:url(#c)" width="66" x="15" y="15"/><path d="m48.125 19.09375c-4.703116 0-10.318355 1.052602-15.09375 3.65625-4.80954 2.622265-8.875 7.189484-8.875 13.5 0 6.102777 3.944951 10.456625 8.5625 12.84375 4.576137 2.365717 9.897554 3.1875 14.1875 3.1875 3.794284 0 7.416889.537542 9.65625 1.53125 1.150435.5105 1.915796 1.073836 2.375 1.65625.470987.597358.6875 1.165734.6875 2.1875 0 1.004766-.221477 1.727715-.6875 2.375s-1.213963 1.222064-2.34375 1.8125c-2.175939 1.137164-5.705793 1.875-9.53125 1.875-4.087919 0-6.866724-1.329646-8.6875-2.875-.881622-.748262-1.526227-1.603906-1.9375-2.34375-.198674-.357398-.319744-.70134-.40625-.96875-.08651-.26741-.125-.50896-.125-.4375 0-1.948773-1.290508-3.306039-2.46875-4.0625-1.194812-.7671-2.655995-1.1875-4.21875-1.1875-1.514575 0-2.98287.37767-4.15625 1.28125-1.219594.939168-1.96875 2.400175-1.96875 3.96875v10.21875c-.0021.139678-.0021-.108428 0 .03125.000004.01976.000013.06325 0 .0625.0531 1.533541.380345 3.282247 1.46875 4.8125.556847.782905 1.303893 1.406538 2.1875 1.875h-5.84375v-11.09375c.0013.117813-.000027-.0081 0-.03125.00002-.01739.000494-.0696 0-.09375.000032-.01159.000002-.05166 0-.0625s.000082-.09298 0-.09375c-.000004-.000041-.02636-.03481-.03125-.0625.000006-.0063.000116-.02097 0-.03125-.000058-.0051.000418-.01827 0-.03125-.000209-.0065.001-.01467 0-.03125-.000261-.0041.0017-.01799 0-.03125-.0038-.01294.0016-.02619 0-.03125-.0043-.03121.00001-.06245 0-.0625-.000077-.00038-.02902-.118144-.03125-.125-.0022-.0069-.02943.0055-.03125 0-.0036-.0109.0039-.01967 0-.03125-.000381-.0015-.02349-.07059-.03125-.09375-.0078-.02316.000453-.02976 0-.03125-.000905-.003-.06145-.122075-.0625-.125-.0001-.00028-.01873-.06433-.03125-.09375.0077.0232-.000591-.03269 0-.03125.000591.0014-.03911-.04679-.03125-.03125-.000268-.000792.01117-.03491 0-.0625-.0019-.0058.0028-.02297 0-.03125-.00071-.0021-.03026.0028-.03125 0-.000992-.0028.0018-.02635 0-.03125-.0035-.0098-.03116-.124828-.03125-.125-.00002-.000038-.0389-.02703-.0625-.0625-.0041-.0097-.03121-.03117-.03125-.03125-.00002-.000041-.01527-.03419-.03125-.0625-.000155-.000189-.02463-.02394-.03125-.03125-.0041-.0072.000005-.03124 0-.03125-.000045-.000068-.07121-.0648-.09375-.09375.000026.000036.0063-.02366 0-.03125-.0051-.0077-.01913-.01406-.03125-.03125-.0147-.0177-.02878-.02865-.03125-.03125-.0064-.0068-.02993-.02991-.03125-.03125-.000485-.000606-.05504-.08628-.0625-.09375-.0075-.0075-.02349-.02354-.03125-.03125-.0021-.0023-.09159-.09152-.09375-.09375-.08693-.08958-.01578-.01577-.03125-.03125s-.06137-.06144-.0625-.0625c-.01029-.01034-.0393-.04064-.0625-.0625.01542.01553-.03243-.03226-.03125-.03125-.0054-.0054-.09344-.09351-.09375-.09375-.0025-.0019-.122455-.09197-.125-.09375-.000159-.000111-.08375-.02586-.09375-.03125-.01-.0054-.02715-.02914-.03125-.03125-.01203-.0071-.03749-.0031-.03125 0-.03333-.02145-.09267-.06189-.09375-.0625-.001-.000589-.0024-.01653-.03125-.03125-.01155-.0078-.02023-.0239-.03125-.03125-.0055-.0037-.02407.0047-.03125 0-.0042-.0026-.02018-.02459-.03125-.03125-.01107-.0067-.09366-.03121-.09375-.03125-.0012-.000525-.0849-.048-.125-.0625-.01242-.0053-.03183-.000226-.03125 0-.03217-.0134-.09346-.0624-.09375-.0625-.0454-.01532-.122013-.0304-.125-.03125-.000047-.000013-.156163-.03124-.15625-.03125.0021.000686-.02808.0011-.03125 0-.02291-.002-.05367.000389-.0625 0-.006-.002.0091-.02832 0-.03125-.0045-.0015-.02.0034-.03125 0-.0056-.0017-.01663.004-.03125 0s-.124904-.03124-.125-.03125c-.000192-.000026-.08475.0002-.09375 0s-.02734.000031-.03125 0c-.0015-.000136-.133061-.000051-.15625 0l-2.03125-.0625h-.0625c-.01636-.000569-.01818.000398-.03125 0s-.0291-.000076-.03125 0c-.0033-.00017-.217247 0-.1875 0 .0238 0-.08078-.000368-.125 0-.0046-.000013-.02035-.000313-.03125 0-.0436.0013-.123673-.000136-.125 0a.97326897.97326897 0 0 0 -.15625 0c-.000349.000066-.08514.02857-.09375.03125-.0086.0027-.02643-.0016-.03125 0-.0096.0031-.0214.02797-.03125.03125-.01971.0066-.03936-.0078-.0625 0-.04628.01557-.02852.03048-.03125.03125-.01936.0038-.04451-.0036-.0625 0-.009.0018-.02032-.0023-.03125 0-.0055.0012-.01983.02862-.03125.03125-.01142.0026-.124668.03113-.125.03125-.07733.02917-.01623-.006-.03125 0s-.04316.02353-.0625.03125c-.03867.01543-.122439.06127-.125.0625-.00016.000077-.110895.05332-.125.0625-.01411.0092-.02553-.004-.03125 0-.01145.008-.02618.02755-.03125.03125-.01013.0074.0075.0256 0 .03125-.01506.01129-.04708.01955-.0625.03125-.01178.007-.01192.01969-.03125.03125-.03865.02313-.15394.0921-.15625.09375-.0704.05039-.01913.0222-.03125.03125-.01212.009-.04701.01965-.0625.03125-.03098.0232-.09159.06065-.09375.0625-.0022.0018-.09413.09406-.125.125s-.01248.01151-.0625.0625c.170906-.174213-.183888.183114-.1875.1875-.0036.0044-.153032.182817-.15625.1875-.0016.0023-.03935.08636-.0625.125-.01158.01932-.02226.04745-.03125.0625-.009.01505.02727-.04086-.03125.0625-.000175.000309-.05871.08488-.0625.09375-.0038.0093.0034.02269 0 .03125-.000603.001.0039.02483 0 .03125-.0075.01452-.02367.01667-.03125.03125-.01534.03871.0012.02867 0 .03125-.007.01149-.02487.02061-.03125.03125-.0053.0089-.02503.0206-.03125.03125-.0031.0053.0064.01983 0 .03125-.0032.0057-.02376.01685-.03125.03125-.0075.0144-.03119.124833-.03125.125-.000119.000335-.02892.08352-.03125.09375-.0023.01023-.03018.02616-.03125.03125-.0021.01018.0018.02245 0 .03125-.0035.0176.0038.04314 0 .0625-.000716.0027-.02353.08631-.03125.125-.0039.01935.003.04724 0 .0625s-.01089-.0577-.03125.0625c-.0012.007-.03079.244337-.03125.25-.000229.0028-.000055.148794 0 .1875.000055.03871-.000168.03442 0 .0625l.15625 16.0625c-.0014-.123449.000029.0081 0 .03125-.000029.0232-.000094.123421 0 .125-.000012.0058-.000001.02579 0 .03125.000002.01093-.000085.09296 0 .09375.000005.000042.02641.03532.03125.0625-.000006.0064-.000124.02068 0 .03125.000062.0053-.000448.01785 0 .03125.0019.0096-.000852.028 0 .03125.0044.01691-.0019.02477 0 .03125.0038.01296-.0016.02617 0 .03125.000855.0038.03039-.0038.03125 0 .0042.02947-.000009.06245 0 .0625.000982.0029.001.03434 0 .03125.0076.02885-.0017.08867 0 .09375.0022.0068.02944-.0054.03125 0 .0036.01086-.0039.01967 0 .03125.000793.0031.03031.121979.03125.125.00094.003.06142.153278.0625.15625.0077.0232.03064.123542.03125.125.0018.0055-.0024.02422 0 .03125.0024.007.06233.09339.0625.09375.04635.09677.02346.04691.03125.0625.0078.01559.0305.06111.03125.0625.000752.0014.04702.101875.0625.125.000029.000047.03833.02869.0625.0625.0069.0097-.0062.02269 0 .03125.00001.000019.02413.01986.03125.03125.01334.01566.02575.02527.03125.03125.02216.03546.03123.09373.03125.09375.000059.000079.01309.0096.03125.03125.0049.0074.02357.01964.03125.03125.01297.01726.0315.03155.03125.03125.0023.0033-.0051.02388 0 .03125.004.004.02736-.0039.03125 0 .01996.02538.06239.09363.0625.09375.0021.0023.113661.113661.09375.09375-.01991-.01991.09141.09162.09375.09375.000146.000133.08638.08861.09375.09375.004.004.02724-.004.03125 0 .003.003.02397.02433.03125.03125.01161.0077.02384.02634.03125.03125.02165.01815.03117.03119.03125.03125.000021.000016.05829.0091.09375.03125.006.0055.01559.01791.03125.03125.01139.0071.03123.03124.03125.03125.0086.0062.02159-.0069.03125 0 .0338.02417.06245.06247.0625.0625.02313.01548.123608.06175.125.0625.0014.000752.04691.02346.0625.03125.01559.0078-.03427-.0151.0625.03125.000357.000171.08672.0601.09375.0625.007.0024.02575-.0018.03125 0 .0015.000614.101805.02356.125.03125.003.0011.153229.06156.15625.0625.003.00094.121937.03046.125.03125.01158.0039.02039-.0036.03125 0 .0054.0018-.0068.02904 0 .03125.0068.0022.124613-.00008.125 0 .0087.0027.125195.03128.125.03125-.000147-.000023.0566-.0033.09375 0 .02718.0048.06246.03124.0625.03125.000787.000085.08282-.000002.09375 0s.0509.000034.0625 0c.02465.000525.07635.000022.09375 0 .02319-.000029.154699.0014.03125 0h64c-.123449.0014.0081-.000029.03125 0 .0232.000029.123421.000095.125 0 .0058.000012.02579.000001.03125 0 .01093-.000002.09296.000085.09375 0 .000042-.000005.03532-.02641.0625-.03125.03715-.0033.0939-.000023.09375 0 .008-.000524.03256.0042.0625 0 .01016-.0033-.0063-.02915 0-.03125.02947-.0042.06245.000009.0625 0 .0087-.0027.0297.000505.03125 0 .02885-.0076.08867.0017.09375 0 .0068-.0022-.0054-.02944 0-.03125.01086-.0036.01967.0039.03125 0 .0031-.000793.121979-.03031.125-.03125.003-.00094.153278-.06141.15625-.0625.0232-.0077.123542-.03064.125-.03125.0055-.0018.02422.0024.03125 0 .007-.0024.09339-.06233.09375-.0625.09677-.04635.04691-.02346.0625-.03125.01559-.0078.06111-.0305.0625-.03125.0014-.000752.101875-.04702.125-.0625.000047-.000029.02869-.03833.0625-.0625.01285-.0074.02419.0041.03125 0 .000019-.00001.01986-.02413.03125-.03125.0068-.0051.01833-.02139.03125-.03125.03546-.02216.09373-.03123.09375-.03125.000159-.000118.05522-.05558.0625-.0625.01726-.01297.03155-.0315.03125-.03125-.0012.001.04666-.0468.03125-.03125.02538-.01996.09363-.06239.09375-.0625.0023-.0021.113661-.113661.09375-.09375-.01991.01991.09162-.09141.09375-.09375.000111-.000122.04254-.06837.0625-.09375.0078-.0077.02322-.02323.03125-.03125.003-.003.02433-.02397.03125-.03125.01297-.01726.03371-.03495.03125-.03125.01815-.02165.03119-.03117.03125-.03125.000016-.000021.0091-.05829.03125-.09375.0099-.01292.02612-.02449.03125-.03125.0071-.01139.03124-.03123.03125-.03125.000042-.000081-.0053-.01936 0-.03125.02417-.03381.06247-.06245.0625-.0625.01548-.02312.06175-.123608.0625-.125.000752-.0014.02346-.04691.03125-.0625.0078-.01559-.0151.03427.03125-.0625.000171-.000357.0601-.08672.0625-.09375.0024-.007-.0018-.02575 0-.03125-.000614.0015.0076-.05445 0-.03125.01003-.02744.02537-.07601.03125-.09375.0011-.003.06156-.153229.0625-.15625.00094-.003.03046-.121937.03125-.125.0039-.01158-.0036-.02039 0-.03125.0018-.0054.02904.0068.03125 0 .0017-.0051-.0076-.0649 0-.09375.000505-.0015-.0027-.02257 0-.03125.0039-.01157-.0042-.04993 0-.0625.0078-.03405.03127-.0626.03125-.0625-.000023.000147-.0033-.0566 0-.09375.0048-.02718.03124-.06246.03125-.0625.000085-.000787-.000002-.08282 0-.09375s.000034-.0509 0-.0625c.000525-.02465.000022-.07635 0-.09375-.000029-.0232.0014-.154699 0-.03125v-2c.0014.123449-.000029-.0081 0-.03125.000022-.0174.000525-.0691 0-.09375-.000068.02319-.000095-.03283 0-.03125.000012-.0058.000001-.02579 0-.03125-.000002-.01093.000085-.09296 0-.09375-.000005-.000042-.02641-.03532-.03125-.0625.000006-.0064.000124-.02068 0-.03125-.000062-.0053.000448-.01785 0-.03125-.000224-.0067.0011-.0142 0-.03125-.000262-.004.0016-.01891 0-.03125-.0038-.01296.0016-.02617 0-.03125-.000855-.0038-.03039.0038-.03125 0-.0042-.01257.0039-.05093 0-.0625-.00008-.000387.0022-.118225 0-.125-.0022-.0068-.02944.0054-.03125 0-.0036-.01086.0039-.01967 0-.03125-.000793-.0031-.03031-.121979-.03125-.125-.00094-.003-.06141-.153278-.0625-.15625-.0059-.01774-.02122-.06631-.03125-.09375.0076.0232-.000614-.03271 0-.03125-.0018-.0055.0024-.02422 0-.03125-.0024-.007-.06233-.09339-.0625-.09375-.04635-.09677-.02346-.04691-.03125-.0625-.0078-.01559-.0305-.06111-.03125-.0625-.000752-.0014-.04702-.101875-.0625-.125-.000029-.000047-.03833-.02869-.0625-.0625-.0053-.01189.000042-.03117 0-.03125-.0047-.0064-.02757.005-.03125 0 .000009.000013.0029-.02739 0-.03125-.01334-.01566-.02575-.02527-.03125-.03125-.02216-.03546-.03123-.09373-.03125-.09375-.000059-.000079-.0131-.0096-.03125-.03125.0025.0037-.01828-.01399-.03125-.03125-.0077-.01161-.02404-.02044-.03125-.03125-.0023-.0033.0051-.02388 0-.03125-.01082-.01246-.03902-.0077-.03125 0-.01996-.02538-.06239-.09363-.0625-.09375-.0021-.0023-.113661-.113661-.09375-.09375.01991.01991-.09141-.09162-.09375-.09375-.000122-.000111-.06837-.04254-.09375-.0625.0077.0078.01246-.02043 0-.03125-.004-.004-.02724.004-.03125 0-.003-.003-.02397-.02433-.03125-.03125-.0073-.0069-.06234-.06238-.0625-.0625-.000021-.000016-.05829-.0091-.09375-.03125-.006-.0055-.01559-.01791-.03125-.03125-.0025-.0021-.02464.0049-.03125 0-.01156-.0086-.01435-.01917-.03125-.03125-.03381-.02417-.06245-.06247-.0625-.0625-.02312-.01548-.123608-.06175-.125-.0625-.0014-.000752-.04691-.02346-.0625-.03125-.01559-.0078.03427.0151-.0625-.03125-.000357-.000171-.08672-.0601-.09375-.0625-.007-.0024-.02575.0018-.03125 0 .0015.000614-.05445-.0076-.03125 0-.02744-.01003-.07601-.02537-.09375-.03125-.003-.0011-.153229-.06156-.15625-.0625-.003-.00094-.121937-.03046-.125-.03125-.01158-.0039-.02039.0036-.03125 0-.0054-.0018.0068-.02904 0-.03125-.0051-.0017-.0649.0076-.09375 0-.0015-.000505-.02257.0027-.03125 0-.0041-.0013-.03223.0069-.0625 0-.0063-.0021.01016-.02799 0-.03125-.03002-.0068-.06259-.000015-.0625 0-.0098-.0026-.05669.0066-.09375 0-.02718-.0048-.06246-.03124-.0625-.03125-.000787-.000085-.08282.000002-.09375 0-.0055-.000001-.02549-.000012-.03125 0-.0016-.000095-.101805-.000029-.125 0-.0232.000029-.154699-.0014-.03125 0h-24c3.690399-.758041 6.977975-2.000779 9.65625-3.8125 4.426034-2.993994 7.281879-7.483169 7.25-12.5625-.04801-7.649081-5.00054-12.474236-10.5-14.75-5.440984-2.251565-11.499963-2.5625-15.40625-2.5625-3.379568-.03542-5.789843-.878467-7.25-1.84375-1.464584-.968209-1.84375-2.015133-1.84375-2.375 0-1.542478 1.913177-5.90625 9.96875-5.90625 4.627419 0 7.091167 1.192295 8.46875 2.34375 1.367676 1.143174 1.706343 2.423048 1.75 2.65625a.97326897.97326897 0 0 0 .03125.0625c-.000465-.0017.03181.09543.03125.09375-.000561-.0017.0319.0954.03125.09375.06823.245587.04762.135352.03125.0625-.007-.03122.02618.120046 0 .03125.853929 2.896588 3.738828 4.25 6.40625 4.25 1.396868 0 2.845601-.307766 4.03125-1.1875 1.2495-.927112 2-2.417021 2-4.03125v-9.53125c0-1.916915-1.183301-3.319614-2.3125-4.1875-1.178707-.905937-2.726295-1.53125-4.46875-1.53125-1.1478 0-2.477664.147999-3.75.84375-.431605.236014-.608174.507926-.84375.78125-.954144-.393356-1.906628-.780893-3.21875-1.0625-2.43514-.522628-5.253866-.875-7.9375-.875zm-12.40625 53.28125c1.792848.709464 3.604277 1.303147 5.46875 1.71875h-7.21875c.299605-.150766.621485-.177414.90625-.40625.475778-.382332.60644-.855374.84375-1.3125z" fill="#fff" opacity=".05"/><path d="m48.125 20.0625c-4.556488 0-10.037025 1.029788-14.625 3.53125-4.600022 2.508031-8.375 6.761189-8.375 12.65625 0 5.68832 3.633833 9.695426 8.03125 11.96875 4.382766 2.26575 9.58916 3.09375 13.75 3.09375 3.883105 0 7.598517.531617 10.0625 1.625 1.248882.554186 2.133093 1.194704 2.71875 1.9375s.90625 1.585534.90625 2.78125c0 2.327349-1.140093 3.79653-3.5625 5.0625-2.398213 1.253326-6.025582 1.96875-9.96875 1.96875-4.300051 0-7.323932-1.405985-9.3125-3.09375-.985373-.836319-1.693861-1.793202-2.15625-2.625s-.65625-1.584687-.65625-1.875c0-1.511375-1.018946-2.600075-2.03125-3.25-1.027693-.659805-2.298205-1.03125-3.6875-1.03125-1.347524 0-2.592733.346966-3.5625 1.09375-.990683.762891-1.59375 1.930086-1.59375 3.1875v10.21875c-.000028.0019-.000028.02935 0 .03125a.87865633.87865633 0 0 0 0 .03125c.04929 1.423424.344688 2.964482 1.28125 4.28125.962549 1.353305 2.626342 2.28125 4.59375 2.28125 1.55937 0 3.061935.0049 4.3125-1 .574428-.461607.869584-1.082712 1.09375-1.71875 4.159666 1.743026 8.47956 2.71875 13.03125 2.71875 6.749945 0 12.539759-1.62073 16.75-4.46875 4.215488-2.85157 6.842088-7.035737 6.8125-11.75-.045431-7.238657-4.652747-11.669767-9.90625-13.84375-5.232942-2.165474-11.181337-2.5-15.03125-2.5-3.534331-.03705-6.128616-.907474-7.78125-2-1.655088-1.094148-2.28125-2.345284-2.28125-3.1875 0-2.265861 2.526406-6.875 10.9375-6.875 4.796552 0 7.524006 1.250427 9.09375 2.5625s2.008017 2.760792 2.09375 3.21875a.87865633.87865633 0 0 0 .03125.09375c.00096.0034.01558.04682.03125.09375.0067.02394.02426.0388.03125.0625.708417 2.403001 3.121864 3.5625 5.46875 3.5625 1.251717 0 2.467193-.280046 3.4375-1 1.000806-.742584 1.625-1.946429 1.625-3.25v-9.53125c0-1.515052-.938441-2.638388-1.9375-3.40625-1.028079-.790166-2.37141-1.34375-3.875-1.34375-1.06685 0-2.210283.133114-3.28125.71875-.435762.238287-.739675.656154-1.0625 1.03125-1.066184-.463191-2.201602-.899847-3.6875-1.21875-2.369936-.508634-5.118738-.84375-7.71875-.84375zm-32.625 40.9375c-.0056.0011-.18203.06096-.1875.0625-.0055.0015-.150934.02925-.15625.03125-.0053.002-.151128.06004-.15625.0625-.0051.0025-.120111.09086-.125.09375-.0049.0029-.15163.09044-.15625.09375-.0046.0033-.120684.09005-.125.09375-.0043.0037-.121021.120944-.125.125-.004.0041-.121388.120614-.125.125-.0036.0044-.09053.120317-.09375.125-.0032.0047-.09095.151306-.09375.15625-.0028.0049-.06014.151082-.0625.15625-.0024.0052-.09185.150896-.09375.15625-.0019.0054-.02982.150751-.03125.15625-.0014.0055-.0303.150648-.03125.15625-.000949.0056-.03079.181837-.03125.1875-.000459.0057-.000034.150568 0 .15625l.15625 16.0625c.000036.0032-.000189.09059 0 .09375.000189.0032-.000341.0906 0 .09375.000341.0031.03076.09062.03125.09375.000493.0031-.000644.09065 0 .09375s.03046.09069.03125.09375c.000793.0031.03031.09073.03125.09375.00094.003.03017.09078.03125.09375.0011.003.03002.09083.03125.09375.0012.0029.02988.0909.03125.09375.0014.0029.02975.05972.03125.0625.0015.0028.06086.09104.0625.09375.0016.0027.06073.05987.0625.0625.0018.0026.02936.09121.03125.09375.0019.0025.06049.06006.0625.0625.002.0024.06037.09141.0625.09375.0021.0023.06026.06026.0625.0625.0022.0022.06016.06037.0625.0625.0023.0021.09131.06049.09375.0625.0024.002.05996.06061.0625.0625.0025.0019.09112.02948.09375.03125.0026.0018.05979.06086.0625.0625.0027.0016.09097.061.09375.0625.0028.0015.05965.02988.0625.03125.0029.0014.09083.03002.09375.03125.0029.0012.09078.03016.09375.03125.003.0011.09073.03031.09375.03125.003.00094.09069.03046.09375.03125.0031.000793.09065.03061.09375.03125.0031.000644.09062-.000493.09375 0 .0031.000493.0906.03091.09375.03125.0031.000341.09059-.000189.09375 0 .0032.000189.09059-.000036.09375 0h64c.0032-.000036.09059.000189.09375 0 .0032-.000189.0906.000341.09375 0 .0031-.000341.09062-.03076.09375-.03125.0031-.000493.09065.000644.09375 0s.09069-.03046.09375-.03125c.0031-.000793.09073-.03031.09375-.03125.003-.00094.09078-.03016.09375-.03125.003-.0011.09083-.03002.09375-.03125.0029-.0012.0909-.02988.09375-.03125.0029-.0014.05972-.02975.0625-.03125.0028-.0015.09104-.06086.09375-.0625.0027-.0016.05987-.06073.0625-.0625.0026-.0018.09121-.02936.09375-.03125.0025-.0019.06006-.06049.0625-.0625.0024-.002.09141-.06037.09375-.0625.0023-.0021.06026-.06026.0625-.0625.0022-.0022.06037-.06016.0625-.0625.0021-.0023.06049-.09131.0625-.09375.002-.0024.06061-.05996.0625-.0625.0019-.0025.02948-.09112.03125-.09375.0018-.0026.06086-.05979.0625-.0625.0016-.0027.061-.09097.0625-.09375.0015-.0028.02988-.05965.03125-.0625.0014-.0029.03002-.09083.03125-.09375.0012-.0029.03016-.09078.03125-.09375.0011-.003.03031-.09073.03125-.09375.00094-.003.03046-.09069.03125-.09375.000793-.0031.03061-.09065.03125-.09375.000644-.0031-.000493-.09062 0-.09375.000493-.0031.03091-.0906.03125-.09375.000341-.0031-.000189-.09059 0-.09375.000189-.0032-.000036-.09059 0-.09375v-2c-.000036-.0032.000189-.09059 0-.09375-.000189-.0032.000341-.0906 0-.09375-.000341-.0031-.03076-.09062-.03125-.09375-.000493-.0031.000644-.09065 0-.09375s-.03046-.09069-.03125-.09375c-.000793-.0031-.03031-.09073-.03125-.09375-.00094-.003-.03016-.09078-.03125-.09375-.0011-.003-.03002-.09083-.03125-.09375-.0012-.0029-.02988-.0909-.03125-.09375-.0014-.0029-.02975-.05972-.03125-.0625-.0015-.0028-.06086-.09104-.0625-.09375-.0016-.0027-.06073-.05987-.0625-.0625-.0018-.0026-.02936-.09121-.03125-.09375-.0019-.0025-.06049-.06006-.0625-.0625-.002-.0024-.06037-.09141-.0625-.09375-.0021-.0023-.06026-.06026-.0625-.0625-.0022-.0022-.06016-.06037-.0625-.0625-.0023-.0021-.09131-.06049-.09375-.0625-.0024-.002-.05996-.06061-.0625-.0625-.0025-.0019-.09112-.02948-.09375-.03125-.0026-.0018-.05979-.06086-.0625-.0625-.0027-.0016-.09097-.061-.09375-.0625-.0028-.0015-.05965-.02988-.0625-.03125-.0029-.0014-.09083-.03002-.09375-.03125-.0029-.0012-.09078-.03016-.09375-.03125-.003-.0011-.09073-.03031-.09375-.03125-.003-.00094-.09069-.03046-.09375-.03125-.0031-.000793-.09065-.03061-.09375-.03125-.0031-.000644-.09062.000493-.09375 0-.0031-.000493-.0906-.03091-.09375-.03125-.0031-.000341-.09059.000189-.09375 0-.0032-.000189-.09059.000036-.09375 0h-60.0625v-12.0625c-.000033-.0031.00018-.09065 0-.09375s.000327-.09066 0-.09375c-.000327-.0031-.03078-.09068-.03125-.09375-.000474-.0031.000619-.09071 0-.09375-.000619-.003-.03049-.09074-.03125-.09375-.000763-.003-.03035-.09078-.03125-.09375-.000905-.003-.0302-.09083-.03125-.09375-.001-.0029-.03007-.05963-.03125-.0625-.0012-.0029-.02993-.09094-.03125-.09375-.0013-.0028-.0298-.091-.03125-.09375-.0014-.0027-.06092-.05982-.0625-.0625-.0016-.0027-.02955-.09115-.03125-.09375s-.06067-.05999-.0625-.0625c-.0018-.0025-.06056-.09133-.0625-.09375-.0019-.0024-.06045-.06017-.0625-.0625-.0021-.0023-.06034-.06027-.0625-.0625-.0022-.0022-.06023-.06038-.0625-.0625-.0023-.0021-.06013-.06049-.0625-.0625-.0024-.002-.06004-.0606-.0625-.0625-.0025-.0019-.0912-.06072-.09375-.0625-.0025-.0018-.05987-.02959-.0625-.03125-.0026-.0017-.09105-.06097-.09375-.0625-.0027-.0015-.05973-.02985-.0625-.03125-.0028-.0014-.09091-.06123-.09375-.0625-.0028-.0013-.09086-.03012-.09375-.03125-.0029-.0011-.05956-.03026-.0625-.03125-.0029-.000993-.09076-.0304-.09375-.03125-.003-.000852-.09073.000709-.09375 0-.003-.000709-.0907-.03068-.09375-.03125-.0031-.000565-.09067-.03083-.09375-.03125-.0031-.000419-.09066.000273-.09375 0-.0031-.000273-.09065.000126-.09375 0l-2.09375-.0625c-.0022-.000226-.03383.0022-.0625 0-.01434-.0011-.03014.000057-.03125 0-.0033-.00017-.121666 0-.125 0-.0033 0-.09042-.00017-.09375 0-.0033.00017-.09043-.000339-.09375 0a.87865633.87865633 0 0 0 -.0625 0z" fill="#fff" opacity=".08"/><path d="m48.125 20.9375c-4.420101 0-9.801734 1.029248-14.21875 3.4375s-7.90625 6.349826-7.90625 11.875c0 5.318711 3.356325 9.013042 7.5625 11.1875s9.30256 3 13.34375 3c3.958067 0 7.744972.506568 10.40625 1.6875s4.15625 2.817193 4.15625 5.53125c0 2.645556-1.437285 4.488122-4.03125 5.84375s-6.32949 2.0625-10.375 2.0625c-4.494948 0-7.734402-1.495702-9.875-3.3125s-3.125-4.053005-3.125-5.15625c0-1.122473-.745301-1.935211-1.625-2.5s-1.99256-.90625-3.21875-.90625c-1.198821 0-2.249643.304361-3.03125.90625s-1.25 1.523544-1.25 2.5v10.21875a1.0747975 1.0747975 0 0 0 0 .03125c.04569 1.319358.328061 2.692036 1.125 3.8125s2.178955 1.90625 3.875 1.90625c1.549975 0 2.769856-.02486 3.75-.8125.490072-.393819.797211-.949704.96875-1.5625.05118-.18284.03087-.429734.0625-.625 4.357164 1.976124 8.869889 3 13.65625 3 6.609219 0 12.222306-1.587964 16.25-4.3125s6.465024-6.645778 6.4375-11.03125c-.043152-6.875522-4.331682-10.944245-9.375-13.03125s-10.89167-2.4375-14.6875-2.4375c-3.67486-.03852-6.455861-.949519-8.28125-2.15625s-2.65625-2.670294-2.65625-3.90625c0-2.889325 3.075553-7.75 11.8125-7.75 9.899825 0 11.816181 5.18425 12.0625 6.5a1.0747975 1.0747975 0 0 0 .03125.09375c.554535 1.996078 2.56777 3 4.65625 3 1.112673 0 2.125091-.264141 2.90625-.84375s1.28125-1.516264 1.28125-2.53125v-9.53125c0-1.158924-.704655-2.035405-1.59375-2.71875s-2.055104-1.15625-3.34375-1.15625c-.984202 0-1.986015.138877-2.875.625-.489755.267812-.931921.70855-1.25 1.21875-1.110828-.529071-2.42695-.986022-4.09375-1.34375-2.307877-.495315-5.004771-.8125-7.53125-.8125zm-32.46875 40.9375a1.0747975 1.0747975 0 0 0 -.875 1.0625l.15625 16.0625a1.0747975 1.0747975 0 0 0 1.0625 1.0625h64a1.0747975 1.0747975 0 0 0 1.0625-1.0625v-2a1.0747975 1.0747975 0 0 0 -1.0625-1.0625h-60.9375v-12.9375a1.0747975 1.0747975 0 0 0 -1.03125-1.0625l-2.15625-.0625a1.0747975 1.0747975 0 0 0 -.21875 0z" fill="#fff" opacity=".15"/><path d="m48.125 22c-8.495667 0-21.0625 4.085438-21.0625 14.25 0 9.750327 12.072493 13.125 19.84375 13.125 8.092727 0 15.625 1.994704 15.625 8.28125 0 6.125458-7.133338 8.96875-15.46875 8.96875-9.467012 0-14.0625-6.304415-14.0625-9.53125 0-1.130854-1.758472-2.34375-3.78125-2.34375-2.024396 0-3.21875 1.054627-3.21875 2.34375v10.21875c.080911 2.336535 1.149577 4.6875 3.9375 4.6875 3.002372 0 3.875-.408911 3.875-3.40625 4.623448 2.363715 9.415572 3.40625 14.5625 3.40625 12.867377 0 21.67506-6.304952 21.625-14.28125-.08091-12.891698-15.554073-14.40625-23-14.40625-7.686553-.08057-12-3.740091-12-7.125 0-3.626555 3.731688-8.8125 12.875-8.8125 10.284575 0 12.778286 5.522974 13.125 7.375.404556 1.456222 1.843117 2.21875 3.625 2.21875 1.862712 0 3.125-.942807 3.125-2.3125v-9.53125c0-1.208553-1.871201-2.8125-3.875-2.8125-1.699133 0-3.45033.638594-3.53125 2.25-1.699134-1.289125-7.353303-2.5625-12.21875-2.5625zm-32.28125 40.9375.15625 16.0625h64v-2h-62v-14z" fill="#fff" opacity=".2"/><path d="m48.125 21c-8.495667 0-21.0625 4.085438-21.0625 14.25 0 9.750327 12.072493 13.125 19.84375 13.125 8.092727 0 15.625 1.994704 15.625 8.28125 0 6.125458-7.133338 8.96875-15.46875 8.96875-9.467012 0-14.0625-6.304415-14.0625-9.53125 0-1.130854-1.758472-2.34375-3.78125-2.34375-2.024396 0-3.21875 1.054627-3.21875 2.34375v10.21875c.080911 2.336535 1.149577 4.6875 3.9375 4.6875 3.002372 0 3.875-.408911 3.875-3.40625 4.623448 2.363715 9.415572 3.40625 14.5625 3.40625 12.867377 0 21.67506-6.304952 21.625-14.28125-.08091-12.891698-15.554073-14.40625-23-14.40625-7.686553-.08057-12-3.740091-12-7.125 0-3.626555 3.731688-8.8125 12.875-8.8125 10.284575 0 12.778286 5.522974 13.125 7.375.404556 1.456222 1.843117 2.21875 3.625 2.21875 1.862712 0 3.125-.942807 3.125-2.3125v-9.53125c0-1.208553-1.871201-2.8125-3.875-2.8125-1.699133 0-3.45033.638594-3.53125 2.25-1.699134-1.289125-7.353303-2.5625-12.21875-2.5625zm-32.28125 40.9375.15625 16.0625h64v-2h-62v-14z" fill="url(#k)"/><path d="m48.125 21c-8.495667 0-21.0625 4.085438-21.0625 14.25 0 .168271.02414.335511.03125.5.407753-9.796083 12.677315-13.75 21.03125-13.75 4.865447 0 10.519616 1.273375 12.21875 2.5625.08092-1.611406 1.832117-2.25 3.53125-2.25 2.003799 0 3.875 1.603947 3.875 2.8125v-1c0-1.208553-1.871201-2.8125-3.875-2.8125-1.699133 0-3.45033.638594-3.53125 2.25-1.699134-1.289125-7.353303-2.5625-12.21875-2.5625zm-13.09375 14.5c-.029564.237196-.03125.46084-.03125.6875 0 3.384909 4.313447 7.04443 12 7.125 7.360116 0 22.541159 1.483538 22.96875 13.96875.0085-.185154.03242-.375448.03125-.5625-.08091-12.891698-15.554073-14.40625-23-14.40625-7.446348-.078052-11.708474-3.520388-11.96875-6.8125zm-5.8125 18.25c-2.024396 0-3.21875 1.054627-3.21875 2.34375v1c0-1.289123 1.194354-2.34375 3.21875-2.34375 2.022778 0 3.78125 1.212896 3.78125 2.34375 0 3.226835 4.595488 9.53125 14.0625 9.53125 8.335412 0 15.46875-2.843292 15.46875-8.96875 0-.174325-.01982-.332226-.03125-.5-.380209 5.778947-7.333228 8.46875-15.4375 8.46875-9.467012 0-14.0625-6.304415-14.0625-9.53125 0-1.130854-1.758472-2.34375-3.78125-2.34375zm-13.375 8.1875v1l2.15625.0625v-1zm2.15625 14.0625v1h62v-1z" opacity=".5"/></svg>
